{"title":"Daredevil S02E01 Bang WEBRip 1080p 6ch x265 10bit [S-Less]","uid":13926388,"size":350160816,"categoryP":"video","categoryS":"hd___tv_shows","magnet":"?xt=urn:btih:d45ec5da69b93c60e8dd1904e6d6aa37e45c9a53&amp;dn=Daredevil+S02E01+Bang+WEBRip+1080p+6ch+x265+10bit+%5BS-Less%5D&amp;tr=udp%3A%2F%2Ftracker.leechers-paradise.org%3A6969&amp;tr=udp%3A%2F%2Fzer0day.ch%3A1337&amp;tr=udp%3A%2F%2Fopen.demonii.com%3A1337&amp;tr=udp%3A%2F%2Ftracker.coppersurfer.tk%3A6969&amp;tr=udp%3A%2F%2Fexodus.desync.com%3A6969","seeders":0,"leechers":1,"uploader":"soulessness","files":1,"time":1458383412,"description":"Daredevil.S02E01.Bang.WEBRip.1080p.6ch.x265.10bit.[S-Less]\r\n\r\nVideo: 1920x1080 WEBRip x265 10bit\r\nAudio: 5.1 English\r\nSubtitles: English, English (SDH), Dutch, French, German, Italian\r\n\r\n01. Bang\r\nHell's Kitchen has calmed, but it's not out of the fire yet. When an unknown vigilante begins to take the fight to the streets in a big and bloody way, Matt Murdock must don the mask of Daredevil to stop him before innocent people end up in the crossfire. A battle of full measure versus half, a conflict of morality and justice, Daredevil vs The Punisher\r\n\r\nMediaInfo:\r\n\r\nVideo\r\nID : 1\r\nFormat : HEVC\r\nFormat/Info : High Efficiency Video Coding\r\nFormat profile : Main   @Main\r\nCodec ID : V_MPEGH/ISO/HEVC\r\nDuration : 48mn 5s\r\nBit rate : 712 Kbps\r\nWidth : 1 920 pixels\r\nHeight : 1 080 pixels\r\nDisplay aspect ratio : 16:9\r\nFrame rate mode : Constant\r\nFrame rate : 23.976 (24000/1001) fps\r\nColor space : YUV\r\nChroma subsampling : 4:2:0\r\nBit depth : 10 bits\r\nBits/(Pixel*Frame) : 0.014\r\nStream size : 245 MiB (73%)\r\nWriting library : x265 1.8+2-55a4a9b920ff:[Windows][GCC 5.2.0][64 bit] 10bit\r\nDefault : Yes\r\nForced : No\r\n\r\nAudio\r\nID : 2\r\nFormat : AAC\r\nFormat/Info : Advanced Audio Codec\r\nFormat profile : LC\r\nCodec ID : A_AAC\r\nDuration : 48mn 5s\r\nBit rate : 256 Kbps\r\nChannel(s) : 6 channels\r\nChannel positions : Front: L C R, Side: L R, LFE\r\nSampling rate : 48.0 KHz\r\nFrame rate : 46.875 fps (1024 spf)\r\nCompression mode : Lossy\r\nDelay relative to video : 9ms\r\nStream size : 87.9 MiB (26%)\r\nLanguage : English\r\nDefault : Yes\r\nForced : No\r\n\r\nText #1\r\nID : 3\r\nFormat : UTF-8\r\nCodec ID : S_TEXT/UTF8\r\nCodec ID/Info : UTF-8 Plain Text\r\nDuration : 46mn 34s\r\nBit rate : 62 bps\r\nCount of elements : 614\r\nStream size : 21.5 KiB (0%)\r\nTitle : English\r\nLanguage : English\r\nDefault : Yes\r\nForced : No\r\n\r\nText #2\r\nID : 4\r\nFormat : UTF-8\r\nCodec ID : S_TEXT/UTF8\r\nCodec ID/Info : UTF-8 Plain Text\r\nDuration : 46mn 44s\r\nBit rate : 75 bps\r\nCount of elements : 744\r\nStream size : 25.7 KiB (0%)\r\nTitle : English (SDH)\r\nLanguage : English\r\nDefault : No\r\nForced : No\r\n\r\nText #3\r\nID : 5\r\nFormat : UTF-8\r\nCodec ID : S_TEXT/UTF8\r\nCodec ID/Info : UTF-8 Plain Text\r\nDuration : 46mn 34s\r\nBit rate : 52 bps\r\nCount of elements : 472\r\nStream size : 18.0 KiB (0%)\r\nTitle : Dutch\r\nLanguage : Dutch\r\nDefault : No\r\nForced : No\r\n\r\nText #4\r\nID : 6\r\nFormat : UTF-8\r\nCodec ID : S_TEXT/UTF8\r\nCodec ID/Info : UTF-8 Plain Text\r\nDuration : 47mn 40s\r\nBit rate : 59 bps\r\nCount of elements : 600\r\nStream size : 20.7 KiB (0%)\r\nTitle : French\r\nLanguage : French\r\nDefault : No\r\nForced : No\r\n\r\nText #5\r\nID : 7\r\nFormat : UTF-8\r\nCodec ID : S_TEXT/UTF8\r\nCodec ID/Info : UTF-8 Plain Text\r\nDuration : 46mn 34s\r\nBit rate : 61 bps\r\nCount of elements : 594\r\nStream size : 21.0 KiB (0%)\r\nTitle : German\r\nLanguage : German\r\nDefault : No\r\nForced : No\r\n\r\nText #6\r\nID : 8\r\nFormat : UTF-8\r\nCodec ID : S_TEXT/UTF8\r\nCodec ID/Info : UTF-8 Plain Text\r\nDuration : 46mn 34s\r\nBit rate : 58 bps\r\nCount of elements : 597\r\nStream size : 20.1 KiB (0%)\r\nTitle : Italian\r\nLanguage : Italian\r\nDefault : No\r\nForced : No","torrent":{"xt":"urn:btih:d45ec5da69b93c60e8dd1904e6d6aa37e45c9a53","amp;dn":"Daredevil+S02E01+Bang+WEBRip+1080p+6ch+x265+10bit+%5BS-Less%5D","amp;tr":["udp%3A%2F%2Ftracker.leechers-paradise.org%3A6969","udp%3A%2F%2Fzer0day.ch%3A1337","udp%3A%2F%2Fopen.demonii.com%3A1337","udp%3A%2F%2Ftracker.coppersurfer.tk%3A6969","udp%3A%2F%2Fexodus.desync.com%3A6969"],"infoHash":"d45ec5da69b93c60e8dd1904e6d6aa37e45c9a53","infoHashBuffer":{"type":"Buffer","data":[212,94,197,218,105,185,60,96,232,221,25,4,230,214,170,55,228,92,154,83]},"announce":[],"urlList":[]}}